<svg xmlns="http://www.w3.org/2000/svg" data-name="Layer 1" viewBox="0 0 512 512"><path fill="#fdd402" d="M482.33008,232.6a188.8142,188.8142,0,0,1-12.28,34.85A195.93276,195.93276,0,0,1,458.29,289.01q-3.68994,5.86486-7.78,11.46L385.77,353c-37.35,14.17993-145.66,49.85-240,2-23.11-11.72-55.53-28.79-66-64.67C66.5,244.82007,98.47,203,103.52,196.59l.02.02c6.11,5.68,12.33,11.16,18.72,16.35A238.73427,238.73427,0,0,0,161.04,239.03a178.32664,178.32664,0,0,0,74.5,20.86c40.38,2.35,80.05005-7.70007,117.91-20.79,10.98-3.78992,91.27-41.27991,99.13007-35.68006C452.58008,203.41992,483.99,225.81006,482.33008,232.6Z"/><path fill="#fdde47" d="M274.2402,305.55859a272.94752,272.94752,0,0,0,173.47314-62.271,7.5,7.5,0,1,0-9.54-11.5752,257.70661,257.70661,0,0,1-128.2666,56.35987c-59.501,8.29882-128.22461-5.7627-158.62061-19.02149a7.49976,7.49976,0,1,0-5.998,13.74805C170.76363,293.91211,228.40377,305.55859,274.2402,305.55859Z"/><path fill="#fbbf13" d="M470.05005,267.45A195.93276,195.93276,0,0,1,458.29,289.01q-3.68994,5.86486-7.78,11.46L385.77,353c-37.35,14.17993-145.66,49.85-240,2-23.11-11.72-55.53-28.79-66-64.67C66.5,244.82007,98.47,203,103.52,196.59l.02.02c6.11,5.68,12.33,11.16,18.72,16.35A238.73427,238.73427,0,0,0,161.04,239.03c25.08,24.84,54.84,44.21,94.63,52.63989,39.57,8.39014,80.3,4.42005,119.7-2.82995,7.54-1.39,47.1-12.73,75.14-18.37A168.72884,168.72884,0,0,1,470.05005,267.45Z"/><path fill="#fdd402" d="M10.42179,248.82284a249.1099,249.1099,0,0,0,16.86,55.73c.01,0,.01.01.01.02a.0098.0098,0,0,1,.01.01c2.5,5.74,5.26,11.46,8.27,17.1,31.87,59.69006,96.25,105.79992,162.92005,127.96a290.82486,290.82486,0,0,0,50.59,12.05c99.98,14.19006,214.49-32.57,254.68006-129.92,2.66992-6.46-25.02-33.31-25.02-33.31-2.36011-2.28992-13.76-.89991-28.23,2.01-28.04,5.64013-67.6001,16.9801-75.14014,18.37011-39.3999,7.25-80.12988,11.22-119.69995,2.83-73.87-15.66-113.16992-69.01-152.13-125.05994l-.02-.02c-10.86-15.62011-21.68994-31.46-33.25-46.74q-2.235-2.97-4.51989-5.91c-1.89014-2.44007-6.59009-8.31995-13.86011-9.5a18.14889,18.14889,0,0,0-8.35.7c-9.91,3.06006-18.37849,13.03446-21.38,16.63a30.21634,30.21634,0,0,0-4.44995,6.47C9.59689,178.34045,3.70182,211.04281,10.42179,248.82284Z"/><path fill="#fdde47" d="M304.8372,398.86164a257.25067,257.25067,0,0,0,36.50391-2.58105c60.24658-8.63672,105.416-37.19434,132.69922-59.63086a7.50007,7.50007,0,0,0-9.52735-11.58594c-25.8042,21.21973-68.48877,48.22461-125.30078,56.36914a243.39015,243.39015,0,0,1-34.52295,2.44043c-78.645.00293-156.875-37.19336-202.39111-98.48828-34.7334-46.773-44.6958-97.0835-46.9375-131.05225-.4126-6.1416-.60889-12.34472-.584-18.4458a7.50011,7.50011,0,0,0-7.46972-7.53027h-.03076a7.49982,7.49982,0,0,0-7.49952,7.46973c-.02587,6.45459.18165,13.01611.61719,19.50244,2.37354,35.97168,12.95166,89.29443,49.86133,138.99951C138.56035,359.37824,221.512,398.86067,304.8372,398.86164Z"/><path fill="#8b8891" d="M443.64332 301.91c13.05 16.48 32.31 41.12 45.64 57.98a188.25754 188.25754 0 0 0 14.48-28.12c2.67-6.46-25.02-33.31-25.02-33.31-2.36-2.29-13.76-.9-28.23 2.01C448.29332 300.92 445.99332 301.4 443.64332 301.91zM468.58332 270.54v-.01c-13.36-16.94-33.46-42.8-46.8-59.7 15.34-5.74 27.92-9.46 30.8-7.41 0 0 31.41 22.39 29.75 29.18a188.94966 188.94966 0 0 1-13.75 37.93zM61.8429 139.60042C59.30433 133.487 54.46835 122.49878 55.94332 107.5c2.23706-22.74854 15.415-37.33105 19.82849-41.82715C75.48568 64.27356 72.98605 53.03979 61.94332 47.5a26.807 26.807 0 0 0-21-1 95.49467 95.49467 0 0 0-18 27c-6.0105 13.59424-7.22192 25.02734-8 33a145.48842 145.48842 0 0 0 4 49.52879c2.54114-2.89441 9.46961-12.53025 21-15.52879C49.32565 138.06018 58.07642 138.63155 61.8429 139.60042z"/></svg>