<svg xmlns="http://www.w3.org/2000/svg" data-name="Layer 1" viewBox="0 0 512 512"><path fill="#97d729" d="M395.84,35.75A7.51,7.51,0,0,1,391,34l-24.5-20.47A7.5,7.5,0,0,1,376.15,2l24.5,20.47a7.5,7.5,0,0,1-4.81,13.26Z"/><path fill="#a2e62e" d="M395.84,28.24h39.66a69,69,0,0,1,69,69V136.9a0,0,0,0,1,0,0H464.84a69,69,0,0,1-69-69V28.24A0,0,0,0,1,395.84,28.24Z"/><path fill="#97d729" d="M450.17,90.07a7.47,7.47,0,0,1-5.3-2.19L390.54,33.55a7.5,7.5,0,0,1,10.61-10.61l54.33,54.33a7.5,7.5,0,0,1-5.31,12.8Z"/><ellipse cx="320.5" cy="390.55" fill="#fe646f" rx="114.38" ry="113.95"/><path fill="#fd4755" d="M356.2,282.27a113.69,113.69,0,0,1,48.68,93.28c0,62.93-51.21,114-114.38,114a114.45,114.45,0,0,1-35.7-5.67,114.12,114.12,0,0,0,65.7,20.67c63.17,0,114.38-51,114.38-113.95A114,114,0,0,0,356.2,282.27Z"/><path fill="#a2e62e" d="M325.93,346.06a7.49,7.49,0,0,1-6-3c-15-20.25-62.56-93.84-45.09-190.47C289.87,69.21,344.12,19.39,366.74,1.84a7.5,7.5,0,1,1,9.2,11.86C354.68,30.19,303.71,77,289.56,155.22c-16.4,90.7,28.3,159.85,42.39,178.88a7.5,7.5,0,0,1-6,12Z"/><ellipse cx="149.2" cy="390.55" fill="#fe646f" rx="114.38" ry="113.95"/><path fill="#fd4755" d="M184.9,282.27a113.69,113.69,0,0,1,48.68,93.28c0,62.93-51.21,114-114.38,114a114.5,114.5,0,0,1-35.7-5.67,114.15,114.15,0,0,0,65.7,20.67c63.17,0,114.38-51,114.38-113.95A114,114,0,0,0,184.9,282.27Z"/><path fill="#a2e62e" d="M154.4,346.09a7.48,7.48,0,0,1-6.44-3.65c-13.17-22-53.92-100.68-25.15-187.23,15.34-46.17,48.33-87,92.9-115C261.28,11.62,315.2-2.19,371.67.28a7.5,7.5,0,1,1-.66,15C317.61,12.91,266.66,26,223.68,52.93c-41.62,26.13-72.39,64.14-86.64,107-26.75,80.5,11.45,154.15,23.79,174.8a7.49,7.49,0,0,1-6.43,11.35Z"/><path fill="#fd4755" d="M319.92 346.47a52.76 52.76 0 0 1-32.12-11.05 7.5 7.5 0 0 1 9.2-11.85 38.16 38.16 0 0 0 24 7.88 37.74 37.74 0 0 0 21.85-7.88 7.5 7.5 0 0 1 9.2 11.85 52.91 52.91 0 0 1-30.62 11zM148.62 346.47a52.76 52.76 0 0 1-32.11-11.05 7.5 7.5 0 1 1 9.2-11.85 38.15 38.15 0 0 0 24 7.88 37.68 37.68 0 0 0 21.85-7.88 7.5 7.5 0 1 1 9.21 11.85 53 53 0 0 1-30.63 11z"/></svg>