<svg xmlns="http://www.w3.org/2000/svg" data-name="Layer 1" viewBox="0 0 512 512"><path fill="#00a653" d="M275.95333,215.42552a7.68093,7.68093,0,0,1-6.99462-4.43634,226.194,226.194,0,0,1-16.02266-48.74666c-5.77666-29.35047-3.00718-53.51671,8.22556-71.88431a56.96234,56.96234,0,0,1-2.42492-27.42331c2.69808-16.92236,13.37252-33.01143,28.55375-43.03833,14.26589-9.42083,32.12622-13.69865,50.27718-12.05073a7.54019,7.54019,0,1,1-1.41221,15.01189c-14.6529-1.33041-28.96523,2.06064-40.30833,9.55186-11.69865,7.72628-19.90623,20.01012-21.95463,32.85929a41.75051,41.75051,0,0,0-.4729,8.49038,35.12851,35.12851,0,0,1,15.14078-9.78693,30.29053,30.29053,0,0,1,16.29032-.29984A31.89429,31.89429,0,0,1,325.10843,79.6742a31.54767,31.54767,0,0,1-1.89159,31.18439A26.61533,26.61533,0,0,1,299.51942,123.324c-8.44428-.31261-17.10878-4.26114-24.396-11.1193a51.67265,51.67265,0,0,1-5.05808-5.5091c-13.69462,34.84043,5.94545,83.01685,12.87366,98.08664a7.486,7.486,0,0,1-3.83214,9.97292A7.75805,7.75805,0,0,1,275.95333,215.42552Zm2.51232-123.55336a38.092,38.092,0,0,0,7.26777,9.44438c4.57269,4.30334,9.67422,6.76885,14.36377,6.94257a11.3205,11.3205,0,0,0,10.202-5.53217,16.66978,16.66978,0,0,0,1.12558-16.23776,16.39327,16.39327,0,0,0-10.41279-8.221,14.92633,14.92633,0,0,0-7.90646.10306C287.228,80.163,282.56444,85.94445,278.46565,91.87216Z"/><ellipse cx="365.092" cy="239.227" fill="#803091" rx="40.908" ry="40.202"/><path fill="#692b7c" d="M365.09192,259.42889a40.80047,40.80047,0,0,1-39.63123-30.20184,39.61736,39.61736,0,0,0-1.27685,10c0,22.20282,18.31518,40.20184,40.90808,40.20184S406,261.42987,406,239.22705a39.61691,39.61691,0,0,0-1.27686-10A40.80047,40.80047,0,0,1,365.09192,259.42889Z"/><path fill="#803091" d="M285.94,464.48c0,22.1-18.27,40.02-40.81,40.02-22.53,0-40.8-17.92-40.8-40.02a40.14794,40.14794,0,0,1,29.51-38.46,41.15918,41.15918,0,0,1,11.29-1.56c22.29,0,40.41,17.53,40.8,39.30005C285.94,464,285.94,464.24,285.94,464.48Z"/><path fill="#692b7c" d="M284.64825,454.505a41.02364,41.02364,0,0,1-79.033-.02209A39.35349,39.35349,0,0,0,204.33,464.48c0,22.1,18.27,40.02,40.8,40.02,22.54,0,40.81-17.92,40.81-40.02,0-.24,0-.48-.01-.72A39.28776,39.28776,0,0,0,284.64825,454.505Z"/><ellipse cx="214.651" cy="415.297" fill="#803091" rx="40.806" ry="40.021"/><path fill="#692b7c" d="M214.65143,435.31787a40.68712,40.68712,0,0,1-39.52149-30.02075,39.366,39.366,0,0,0-1.28424,10c0,22.10284,18.26935,40.02075,40.80573,40.02075S255.45721,437.4,255.45721,415.29712a39.36558,39.36558,0,0,0-1.28424-10A40.68712,40.68712,0,0,1,214.65143,435.31787Z"/><path fill="#803091" d="M315.44,415.3c0,22.1-18.27,40.02-40.81,40.02S233.83,437.4,233.83,415.3c0-20.66,15.95-37.66,36.44-39.79a41.85227,41.85227,0,0,1,4.36-.23,40.64789,40.64789,0,0,1,39.76,30.98A39.03311,39.03311,0,0,1,315.44,415.3Z"/><path fill="#692b7c" d="M314.1485,405.32416a41.02394,41.02394,0,0,1-79.02954-.00653A39.36217,39.36217,0,0,0,233.83,415.3c0,22.1,18.26,40.02,40.8,40.02S315.44,437.4,315.44,415.3a39.03311,39.03311,0,0,0-1.05-9.04C314.3161,405.9455,314.22992,405.63574,314.1485,405.32416Z"/><ellipse cx="310.029" cy="356.471" fill="#803091" rx="40.806" ry="40.021"/><path fill="#692b7c" d="M310.02875,376.49219a40.68707,40.68707,0,0,1-39.52149-30.02069,39.366,39.366,0,0,0-1.28424,10c0,22.10278,18.26935,40.02069,40.80573,40.02069s40.80572-17.91791,40.80572-40.02069a39.36552,39.36552,0,0,0-1.28424-10A40.68706,40.68706,0,0,1,310.02875,376.49219Z"/><ellipse cx="335.594" cy="298.053" fill="#803091" rx="40.806" ry="40.021"/><path fill="#692b7c" d="M335.59381,318.07343a40.68712,40.68712,0,0,1-39.52154-30.0207,39.36558,39.36558,0,0,0-1.28425,10c0,22.10285,18.26941,40.0207,40.80579,40.0207s40.80573-17.91785,40.80573-40.0207a39.366,39.366,0,0,0-1.28424-10A40.68707,40.68707,0,0,1,335.59381,318.07343Z"/><ellipse cx="285.447" cy="298.053" fill="#803091" rx="40.806" ry="40.021"/><ellipse cx="250.049" cy="356.471" fill="#803091" rx="40.806" ry="40.021"/><path fill="#692b7c" d="M250.04919 376.49219a40.68707 40.68707 0 0 1-39.52148-30.02069 39.36552 39.36552 0 0 0-1.28424 10c0 22.10278 18.26935 40.02069 40.80572 40.02069S290.855 378.57428 290.855 356.4715a39.36552 39.36552 0 0 0-1.28424-10A40.68709 40.68709 0 0 1 250.04919 376.49219zM285.447 318.07343a40.687 40.687 0 0 1-39.52148-30.0207 39.36558 39.36558 0 0 0-1.28424 10c0 22.10285 18.26934 40.0207 40.80572 40.0207s40.80579-17.91785 40.80579-40.0207a39.366 39.366 0 0 0-1.28424-10A40.68714 40.68714 0 0 1 285.447 318.07343z"/><ellipse cx="191.053" cy="356.471" fill="#803091" rx="40.806" ry="40.021"/><path fill="#692b7c" d="M230.57446,346.4715a41.02491,41.02491,0,0,1-79.043,0,39.366,39.366,0,0,0-1.28424,10c0,22.10278,18.26935,40.02069,40.80579,40.02069s40.80572-17.91791,40.80572-40.02069A39.36552,39.36552,0,0,0,230.57446,346.4715Z"/><ellipse cx="167.454" cy="298.053" fill="#803091" rx="40.806" ry="40.021"/><path fill="#692b7c" d="M167.45447,318.07343a40.68709,40.68709,0,0,1-39.52155-30.0207,39.36558,39.36558,0,0,0-1.28424,10c0,22.10285,18.26935,40.0207,40.80579,40.0207s40.80572-17.91785,40.80572-40.0207a39.36558,39.36558,0,0,0-1.28424-10A40.68706,40.68706,0,0,1,167.45447,318.07343Z"/><ellipse cx="226.451" cy="298.053" fill="#803091" rx="40.806" ry="40.021"/><path fill="#692b7c" d="M226.45068,318.07343a40.68707,40.68707,0,0,1-39.52148-30.0207,39.36558,39.36558,0,0,0-1.28424,10c0,22.10285,18.26935,40.0207,40.80572,40.0207s40.80579-17.91785,40.80579-40.0207a39.36558,39.36558,0,0,0-1.28424-10A40.68709,40.68709,0,0,1,226.45068,318.07343Z"/><ellipse cx="324.778" cy="239.227" fill="#803091" rx="40.806" ry="40.021"/><path fill="#692b7c" d="M324.77783,259.2478a40.68711,40.68711,0,0,1-39.52154-30.02075,39.36558,39.36558,0,0,0-1.28424,10c0,22.10285,18.26934,40.02075,40.80578,40.02075s40.80573-17.9179,40.80573-40.02075a39.366,39.366,0,0,0-1.28424-10A40.68711,40.68711,0,0,1,324.77783,259.2478Z"/><ellipse cx="146.806" cy="239.227" fill="#803091" rx="40.806" ry="40.021"/><path fill="#692b7c" d="M146.80573,259.2478a40.68711,40.68711,0,0,1-39.52149-30.02075,39.36558,39.36558,0,0,0-1.28424,10c0,22.10285,18.26935,40.02075,40.80573,40.02075s40.80578-17.9179,40.80578-40.02075a39.36558,39.36558,0,0,0-1.28424-10A40.68713,40.68713,0,0,1,146.80573,259.2478Z"/><ellipse cx="206.785" cy="239.227" fill="#803091" rx="40.806" ry="40.021"/><path fill="#692b7c" d="M206.78528,259.2478a40.68711,40.68711,0,0,1-39.52149-30.02075,39.366,39.366,0,0,0-1.28424,10c0,22.10285,18.26935,40.02075,40.80573,40.02075s40.80578-17.9179,40.80578-40.02075a39.36558,39.36558,0,0,0-1.28424-10A40.68716,40.68716,0,0,1,206.78528,259.2478Z"/><ellipse cx="265.782" cy="239.227" fill="#803091" rx="40.806" ry="40.021"/><path fill="#692b7c" d="M265.78156,259.2478a40.68711,40.68711,0,0,1-39.52149-30.02075,39.36558,39.36558,0,0,0-1.28424,10c0,22.10285,18.26935,40.02075,40.80573,40.02075s40.80572-17.9179,40.80572-40.02075a39.36558,39.36558,0,0,0-1.28424-10A40.68711,40.68711,0,0,1,265.78156,259.2478Z"/><ellipse cx="176.304" cy="180.401" fill="#803091" rx="40.908" ry="40.202"/><path fill="#692b7c" d="M176.30389,200.60321a40.80048,40.80048,0,0,1-39.63122-30.20184,39.6168,39.6168,0,0,0-1.27686,10c0,22.20288,18.31519,40.20184,40.90808,40.20184s40.90809-17.999,40.90809-40.20184a39.6168,39.6168,0,0,0-1.27686-10A40.80048,40.80048,0,0,1,176.30389,200.60321Z"/><ellipse cx="335.594" cy="180.401" fill="#803091" rx="40.397" ry="39.699"/><path fill="#692b7c" d="M335.59381,200.10065a40.29286,40.29286,0,0,1-39.10223-29.69928,39.11409,39.11409,0,0,0-1.2945,10c0,21.92535,18.08625,39.69928,40.39673,39.69928s40.39673-17.77393,40.39673-39.69928a39.11409,39.11409,0,0,0-1.2945-10A40.29286,40.29286,0,0,1,335.59381,200.10065Z"/><ellipse cx="285.447" cy="180.401" fill="#803091" rx="40.908" ry="40.202"/><path fill="#692b7c" d="M285.447,200.60321a40.80049,40.80049,0,0,1-39.63123-30.20184,39.61725,39.61725,0,0,0-1.27685,10c0,22.20288,18.31518,40.20184,40.90808,40.20184s40.90808-17.999,40.90808-40.20184a39.61725,39.61725,0,0,0-1.27685-10A40.80049,40.80049,0,0,1,285.447,200.60321Z"/><ellipse cx="237.987" cy="182.105" fill="#803091" rx="40.908" ry="40.021"/><path fill="#692b7c" d="M237.98705,202.12572A40.77276,40.77276,0,0,1,198.36644,172.105a39.2715,39.2715,0,0,0-1.28747,10c0,22.10284,18.31512,40.02075,40.90808,40.02075s40.908-17.91791,40.908-40.02075a39.27105,39.27105,0,0,0-1.28748-10A40.77273,40.77273,0,0,1,237.98705,202.12572Z"/></svg>