<svg xmlns="http://www.w3.org/2000/svg" data-name="Layer 1" viewBox="0 0 512 512"><path fill="#f7991d" d="M410,304.5a199.86155,199.86155,0,0,1-95.09,170.30005q-7.5,4.63513-15.43,8.60986a197.47892,197.47892,0,0,1-28.84,11.73023q-2.76.88476-5.57,1.67993A200.10455,200.10455,0,0,1,210,504.5c-110.46,0-200-89.54-200-200A200.01123,200.01123,0,0,1,191.85,105.31006Q200.82,104.5,210,104.5C320.46,104.5,410,194.04,410,304.5Z"/><path fill="#00a653" d="M210.00732,183.002a7.50814,7.50814,0,0,1-7.33349-9.10742A402.885,402.885,0,0,0,212,87.50586a403.04333,403.04333,0,0,0-7.59326-77.44629,7.49994,7.49994,0,0,1,14.7168-2.90039A418.02139,418.02139,0,0,1,227,87.49414a417.92062,417.92062,0,0,1-9.67383,89.61133A7.50342,7.50342,0,0,1,210.00732,183.002Z"/><path fill="#e37626" d="M191.85,105.31006c-.73,1.04993-1.5,2.08984-2.3,3.11987C169.94,133.75,131.36,148.29,86.89,146.87A199.06609,199.06609,0,0,1,191.85,105.31006Z"/><path fill="#37b678" d="M189.54932,98.42769c14.91992-19.27186,20.69677-43.18782,20.69677-43.18831a116.71207,116.71207,0,0,0,1.519-46.62992,103.56418,103.56418,0,0,0-46.2334,10.06743c-18.64746,8.87745-29.67725,21.1027-38.59375,31.23274C105.29883,74.49349,81.60693,102.38085,56.5,133.5,113.25732,144.23335,165.585,129.38185,189.54932,98.42769Z"/><path fill="#00a653" d="M93.34617,135.95862A9.42809,9.42809,0,0,1,86.95933,120.621C108.2,94.63759,128.32813,71.05189,146.938,49.90967c8.9165-10.13013,19.94629-22.35535,38.59375-31.23279A103.83866,103.83866,0,0,1,212.01453,10.196c-.08252-.529-.15961-1.05883-.24939-1.58666a103.56384,103.56384,0,0,0-46.2334,10.0675c-18.64746,8.87744-29.67725,21.10266-38.59375,31.23279C105.29883,74.49341,81.60693,102.38086,56.5,133.5a192.47551,192.47551,0,0,0,46.27533,3.197Q98.09822,136.44561,93.34617,135.95862Z"/><path fill="#00a653" d="M156.64063,88.041a7.50005,7.50005,0,0,1-5.94776-12.06153L205.812,4.04785a7.49981,7.49981,0,1,1,11.90625,9.123L162.59912,85.10254A7.48843,7.48843,0,0,1,156.64063,88.041Z"/><circle cx="85" cy="242.341" r="7.5" fill="#e37626"/><circle cx="105" cy="273.341" r="7.5" fill="#e37626"/><circle cx="55" cy="313.341" r="7.5" fill="#e37626"/><circle cx="64" cy="273.341" r="7.5" fill="#e37626"/><circle cx="94" cy="312.341" r="7.5" fill="#e37626"/><circle cx="121.5" cy="304.841" r="7.5" fill="#e37626"/><circle cx="114" cy="343.341" r="7.5" fill="#e37626"/><circle cx="79" cy="343.341" r="7.5" fill="#e37626"/><path fill="#fdc475" d="M504.5,351.5a152.5,152.5,0,0,1-305,0Z"/><path fill="#faa827" d="M476,351.5C476,419.70717,420.48331,475,352,475S228,419.70717,228,351.5Z"/><path fill="#e37626" d="M352.001 482h-.03955A7.50026 7.50026 0 0 1 344.5 474.46094l.5-97A7.50069 7.50069 0 0 1 352.499 370h.03955A7.50026 7.50026 0 0 1 360 377.53906l-.5 97A7.50069 7.50069 0 0 1 352.001 482zM440.88037 444.38086a7.47819 7.47819 0 0 1-5.30322-2.19629l-69.38037-69.38086a7.50023 7.50023 0 0 1 10.60644-10.60742l69.38037 69.38086a7.5 7.5 0 0 1-5.30322 12.80371zM263.5 446a7.5 7.5 0 0 1-5.30322-12.80371l70-70a7.50023 7.50023 0 0 1 10.60644 10.60742l-70 70A7.47819 7.47819 0 0 1 263.5 446zM210.13672 183.13184a82.81654 82.81654 0 0 1-32.60108-6.74219 7.50031 7.50031 0 0 1 5.92872-13.7793 67.37968 67.37968 0 0 0 30.582 5.40332 66.43566 66.43566 0 0 0 22.4707-5.39453 7.4996 7.4996 0 1 1 5.96582 13.76172 81.3965 81.3965 0 0 1-27.52978 6.60547Q212.55078 183.13135 210.13672 183.13184z"/><path fill="#e37626" d="M314.91,474.80005q-7.5,4.63513-15.43,8.60986a197.47892,197.47892,0,0,1-28.84,11.73023A152.5858,152.5858,0,0,1,169.5,351.5h30C199.5,417.33984,249.73,471.14014,314.91,474.80005Z"/><path fill="#e0e0e2" d="M382,351.5a30,30,0,0,1-60,0Z"/><path fill="#fdc475" d="M504.5,351.5a152.5,152.5,0,0,1-305,0H228C228,419.71,283.52,475,352,475s124-55.29,124-123.5Z"/></svg>