<svg xmlns="http://www.w3.org/2000/svg" data-name="Layer 1" viewBox="0 0 512 512"><path fill="#37b678" d="M366.02,256a344.4993,344.4993,0,0,1-4.61,56.5q-1.68,10.17-3.95,20c-18.62,80.72-65.92,143.37-125.06,164.37q-4.98,1.785-10.09,3.16a128.74207,128.74207,0,0,1-33.64,4.47C90.73,504.5,11.33,393.24,11.33,256S90.73,7.5,188.67,7.5C286.62,7.5,366.02,118.76,366.02,256Z"/><ellipse cx="188.673" cy="256" fill="#00a653" rx="119.129" ry="248.5"/><ellipse cx="188.673" cy="256" fill="#37b678" rx="50.131" ry="248.5"/><path fill="#058b48" d="M361.41,312.5q-1.68,10.17-3.95,20c-18.62,80.72-65.92,143.37-125.06,164.37A192.083,192.083,0,0,1,94.17,312.5Z"/><path fill="#37b678" d="M508.17294,312.5001c0,106.03867-85.96133,192-192,192s-192-85.96133-192-192Z"/><path fill="#e5303e" d="M468.98784,312.5001a152.8149,152.8149,0,0,1-305.6298,0Z"/><path fill="#3c3b41" d="M207.31144 355.58594a7.50006 7.50006 0 0 1-7.5-7.5V337.13281a7.5 7.5 0 0 1 15 0v10.95313A7.50006 7.50006 0 0 1 207.31144 355.58594zM244.73453 355.58594a7.50006 7.50006 0 0 1-7.5-7.5V337.13281a7.5 7.5 0 0 1 15 0v10.95313A7.50006 7.50006 0 0 1 244.73453 355.58594zM282.15763 355.58594a7.50006 7.50006 0 0 1-7.5-7.5V337.13281a7.5 7.5 0 0 1 15 0v10.95313A7.50006 7.50006 0 0 1 282.15763 355.58594zM319.58072 355.58594a7.50006 7.50006 0 0 1-7.5-7.5V337.13281a7.5 7.5 0 0 1 15 0v10.95313A7.50006 7.50006 0 0 1 319.58072 355.58594zM357.00382 355.58594a7.50006 7.50006 0 0 1-7.5-7.5V337.13281a7.5 7.5 0 1 1 15 0v10.95313A7.50006 7.50006 0 0 1 357.00382 355.58594zM394.42691 355.58594a7.50006 7.50006 0 0 1-7.5-7.5V337.13281a7.5 7.5 0 1 1 15 0v10.95313A7.50006 7.50006 0 0 1 394.42691 355.58594zM394.42691 424.19092a7.50006 7.50006 0 0 1-7.5-7.5V405.73779a7.5 7.5 0 0 1 15 0v10.95313A7.50006 7.50006 0 0 1 394.42691 424.19092zM375.71537 390.24609a7.50006 7.50006 0 0 1-7.5-7.5V371.793a7.5 7.5 0 0 1 15 0v10.95312A7.50006 7.50006 0 0 1 375.71537 390.24609zM416.71537 390.24609a7.50006 7.50006 0 0 1-7.5-7.5V371.793a7.5 7.5 0 0 1 15 0v10.95312A7.50006 7.50006 0 0 1 416.71537 390.24609zM338.29227 390.24609a7.50006 7.50006 0 0 1-7.5-7.5V371.793a7.5 7.5 0 0 1 15 0v10.95312A7.50006 7.50006 0 0 1 338.29227 390.24609zM300.86917 390.24609a7.50006 7.50006 0 0 1-7.5-7.5V370.0166a7.5 7.5 0 0 1 15 0v12.72949A7.50006 7.50006 0 0 1 300.86917 390.24609zM263.44608 390.24609a7.50006 7.50006 0 0 1-7.5-7.5V370.0166a7.5 7.5 0 0 1 15 0v12.72949A7.50006 7.50006 0 0 1 263.44608 390.24609zM282.15763 424.19092a7.50006 7.50006 0 0 1-7.5-7.5V403.96143a7.5 7.5 0 0 1 15 0v12.72949A7.50006 7.50006 0 0 1 282.15763 424.19092zM244.73453 424.19092a7.50006 7.50006 0 0 1-7.5-7.5V403.96143a7.5 7.5 0 0 1 15 0v12.72949A7.50006 7.50006 0 0 1 244.73453 424.19092zM319.58072 424.19092a7.50006 7.50006 0 0 1-7.5-7.5V403.96143a7.5 7.5 0 0 1 15 0v12.72949A7.50006 7.50006 0 0 1 319.58072 424.19092zM357.00382 424.19092a7.50006 7.50006 0 0 1-7.5-7.5V403.96143a7.5 7.5 0 1 1 15 0v12.72949A7.50006 7.50006 0 0 1 357.00382 424.19092zM226.023 390.24609a7.50006 7.50006 0 0 1-7.5-7.5V370.0166a7.5 7.5 0 0 1 15 0v12.72949A7.50006 7.50006 0 0 1 226.023 390.24609z"/></svg>